<svg transform="scale(1)" id="C1fNAeO6hw" xmlns="http://www.w3.org/2000/svg" xmlns:xlink="http://www.w3.org/1999/xlink" viewBox="0 0 500 500" class="pbimage_pbimage__wrapper__image__0LEis false"><title>Information</title><defs><style> .cls-1{fill:url(#linear-gradient-C1fNAeO6hw);} .cls-1, .cls-2, .cls-3, .cls-4, .cls-5, .cls-6, .cls-7, .cls-8, .cls-9, .cls-10, .cls-11, .cls-12, .cls-13, .cls-14, .cls-15, .cls-16, .cls-17, .cls-18{stroke-width:0px;} .cls-2{opacity:.59;} .cls-2, .cls-3{isolation:isolate;} .cls-2, .cls-3, .cls-18{fill:#68e1fd;} .cls-3{opacity:.18;} .cls-4{fill:url(#linear-gradient-11-C1fNAeO6hw);} .cls-5{fill:url(#linear-gradient-12-C1fNAeO6hw);} .cls-6{fill:url(#linear-gradient-10-C1fNAeO6hw);} .cls-7{fill:url(#linear-gradient-4-C1fNAeO6hw);} .cls-8{fill:url(#linear-gradient-2-C1fNAeO6hw);} .cls-9{fill:url(#linear-gradient-3-C1fNAeO6hw);} .cls-10{fill:url(#linear-gradient-8-C1fNAeO6hw);} .cls-11{fill:url(#linear-gradient-9-C1fNAeO6hw);} .cls-12{fill:url(#linear-gradient-7-C1fNAeO6hw);} .cls-13{fill:url(#linear-gradient-5-C1fNAeO6hw);} .cls-14{fill:url(#linear-gradient-6-C1fNAeO6hw);} .cls-15{fill:#473f47;} .cls-16{fill:#fff;} .cls-17{fill:#ffb4a3;}
 .cls-2, .cls-3, .cls-18{fill:#68E1FD;}
 .cls-17{fill:#FFB4A3;}
 .cls-16{fill:#FFFFFF;}
 .cls-15{fill:#473F47;}</style><linearGradient id="linear-gradient-C1fNAeO6hw" x1="803.81" y1="3187.46" x2="869.87" y2="3187.46" gradientTransform="translate(-471 3343.65) scale(1 -1)" gradientUnits="userSpaceOnUse"><stop offset="0" stop-color="#231f20" style="stop-color: rgb(35, 31, 32);"></stop><stop offset=".08" stop-color="#231f20" stop-opacity=".69" style="stop-color: rgb(35, 31, 32);"></stop><stop offset=".21" stop-color="#231f20" stop-opacity=".32" style="stop-color: rgb(35, 31, 32);"></stop><stop offset="1" stop-color="#231f20" stop-opacity="0" style="stop-color: rgb(35, 31, 32);"></stop></linearGradient><linearGradient id="linear-gradient-2-C1fNAeO6hw" x1="11.36" y1="3234.68" x2="679.9" y2="2862.22" gradientTransform="translate(-435.66 3401.73) rotate(9.48) scale(1 -1)" xlink:href="#linear-gradient-C1fNAeO6hw"></linearGradient><linearGradient id="linear-gradient-3-C1fNAeO6hw" x1="312.08" y1="258.15" x2="264.84" y2="296.76" gradientUnits="userSpaceOnUse"><stop offset="0" stop-color="#231f20" stop-opacity="0" style="stop-color: rgb(35, 31, 32);"></stop><stop offset="1" stop-color="#231f20" style="stop-color: rgb(35, 31, 32);"></stop></linearGradient><linearGradient id="linear-gradient-4-C1fNAeO6hw" x1="263.96" y1="233.7" x2="270.53" y2="221.26" xlink:href="#linear-gradient-3-C1fNAeO6hw"></linearGradient><linearGradient id="linear-gradient-5-C1fNAeO6hw" x1="47.93" y1="3329.59" x2="411.54" y2="3078.54" gradientTransform="translate(-435.66 3401.73) rotate(9.48) scale(1 -1)" xlink:href="#linear-gradient-C1fNAeO6hw"></linearGradient><linearGradient id="linear-gradient-6-C1fNAeO6hw" x1="195.06" y1="250.99" x2="235.24" y2="144.78" xlink:href="#linear-gradient-3-C1fNAeO6hw"></linearGradient><linearGradient id="linear-gradient-7-C1fNAeO6hw" x1="164.89" y1="3138.85" x2="275.56" y2="3172.08" gradientTransform="translate(-435.66 3401.73) rotate(9.48) scale(1 -1)" xlink:href="#linear-gradient-C1fNAeO6hw"></linearGradient><linearGradient id="linear-gradient-8-C1fNAeO6hw" x1="1542.8" y1="2589.55" x2="1568.92" y2="2529.76" gradientTransform="translate(-575.18 3264.92) rotate(-15.73) scale(1 -1)" xlink:href="#linear-gradient-C1fNAeO6hw"></linearGradient><linearGradient id="linear-gradient-9-C1fNAeO6hw" x1="-1342.18" y1="2372.4" x2="-1385.69" y2="2335.34" gradientTransform="translate(922.69 2982.58) rotate(14.77) scale(1 -1)" gradientUnits="userSpaceOnUse"><stop offset="0" stop-color="#000" style="stop-color: rgb(0, 0, 0);"></stop><stop offset=".13" stop-color="#000" stop-opacity=".69" style="stop-color: rgb(0, 0, 0);"></stop><stop offset=".25" stop-color="#000" stop-opacity=".32" style="stop-color: rgb(0, 0, 0);"></stop><stop offset="1" stop-color="#000" stop-opacity="0" style="stop-color: rgb(0, 0, 0);"></stop></linearGradient><linearGradient id="linear-gradient-10-C1fNAeO6hw" x1="210.64" y1="2340.02" x2="276.13" y2="2400.56" gradientTransform="translate(-615.36 2577.13) rotate(14.77) scale(1 -1)" xlink:href="#linear-gradient-9-C1fNAeO6hw"></linearGradient><linearGradient id="linear-gradient-11-C1fNAeO6hw" x1="-726.21" y1="3286.05" x2="-653.34" y2="3148.14" gradientTransform="translate(-567.12 3383.73) rotate(12.89) scale(.85 -1) skewX(16.54)" xlink:href="#linear-gradient-C1fNAeO6hw"></linearGradient><linearGradient id="linear-gradient-12-C1fNAeO6hw" x1="-711.66" y1="3293.73" x2="-638.83" y2="3155.82" gradientTransform="translate(-567.12 3383.73) rotate(12.89) scale(.85 -1) skewX(16.54)" xlink:href="#linear-gradient-C1fNAeO6hw"></linearGradient></defs><path class="cls-3" id="background" d="M115.44,409c-16.33-2.68-31.7-9.49-44.65-19.79-15.23-11.99-31.82-28.16-31.31-48.22.54-21.26,8.49-41.74,17.09-60.9,11.63-25.88,27.83-53.17,23.54-81.98-4.29-28.82,1.47-63.3,16.64-87.71,23.99-38.44,65.97-47.77,107.95-48.67,27.74-.57,56.28,1.08,81.56,12.5,26.57,11.99,47.98,34.18,74.97,44.47,17.99,6.78,37.66,8.13,55.26,15.74,22.16,9.63,39.25,28.7,50.32,50.17,11.06,21.47,16.7,45.31,20.99,68.97,7.02,40-9.66,89.96-33.67,122.7-16.01,21.77-42.82,46.99-70.38,41.71-140.31-26.63-113.35,16.16-268.32-9Z"></path><g id="paper_plane"><polygon class="cls-18" points="304.86 125.42 398.87 137.92 332.81 144.94 304.86 125.42"></polygon><polygon class="cls-18" points="332.81 144.94 337.82 174.45 345.82 149.95 398.87 137.92 332.81 144.94"></polygon><polygon class="cls-1" points="332.81 144.94 337.82 174.45 345.82 149.95 398.87 137.92 332.81 144.94"></polygon><polygon class="cls-18" points="365.83 176.97 345.82 149.95 398.87 137.92 365.83 176.97"></polygon><polygon class="cls-16" points="337.82 174.45 357.04 165.06 345.82 149.95 337.82 174.45" fill="#FFFFFF"></polygon><polygon class="cls-2" points="337.82 174.45 357.04 165.06 345.82 149.95 337.82 174.45"></polygon></g><path class="cls-18" id="path" d="M200.15,360.12c-2.19-.72-4.32-1.44-6.39-2.22l1.38-3.75c2.01.75,4.11,1.47,6.24,2.16l-1.23,3.81ZM181.26,352.65c-2.1-1.02-4.14-2.07-6-3l1.89-3.63c1.83,1.02,3.78,2.04,5.82,3l-1.71,3.63ZM343.19,350.2h-6.75v-4.02l6.63.18.12,3.84ZM356.68,349.96l-.21-3.99c2.25,0,4.47-.27,6.6-.48l.33,3.99c-2.1.21-4.35.36-6.66.48h-.06ZM323.03,349.03l-6.69-.69.45-3.99c2.22.27,4.41.48,6.6.69l-.36,3.99ZM377.01,347.59l-.69-3.93c2.19-.39,4.38-.84,6.45-1.32l.9,3.9c-2.25.63-4.5,1.08-6.78,1.47l.12-.12ZM396.71,342.31l-1.41-3.72c2.1-.81,4.11-1.65,6-2.55l1.74,3.6c-2.13,1.08-4.26,1.98-6.45,2.79l.12-.12ZM163.99,341.77c-1.8-1.45-3.5-3.01-5.1-4.68l3-2.76c1.49,1.55,3.07,3,4.74,4.35l-2.64,3.09ZM414.79,332.47l-2.46-3.18c1.05-.81,2.07-1.68,3-2.58l1.71-1.68,2.79,2.85-1.86,1.77c-.93,1.08-2.16,2.04-3.3,2.94l.12-.12ZM150.91,325.64c-1.02-2.11-1.82-4.32-2.4-6.6l3.9-.87c.45,2.07,1.12,4.08,2.01,6l-3.51,1.47ZM225.58,324.68l-6.45-2.64,1.62-3.66c2.01.87,4.05,1.74,6,2.58l-1.17,3.72ZM428.95,317.51l-3.27-2.31c1.23-1.74,2.34-3.57,3.33-5.46l3.54,1.83c-1.11,2.1-2.36,4.13-3.75,6.06l.15-.12ZM207.05,316.37c-2.04-.99-4.05-2.01-6-3l1.8-3.33c1.95,1.02,3.93,2.04,6,3l-1.8,3.33ZM189.15,307.05c-1.95-1.14-3.9-2.31-5.76-3.51l2.13-3.39c1.83,1.17,3.75,2.34,5.67,3.48l-2.04,3.42ZM152.26,305.88l-3.93-.75c.46-2.29,1.1-4.53,1.92-6.72l3.75,1.38c-.71,1.93-1.27,3.92-1.68,5.94l-.06.15ZM436.53,298.44l-3.99-.42c.11-1,.17-2,.18-3,0-1-.06-2-.18-3l3.99-.42c.12,1.17.18,2.34.18,3.51,0,1.06-.03,2.12-.12,3.18l-.06.15ZM172.2,295.98c-1.83-1.35-3.66-2.7-5.4-4.08l2.46-3.15c1.71,1.35,3.48,2.67,5.28,3.99l-2.34,3.24ZM160.06,288.27l-3.33-2.22c1.26-1.83,2.64-3.66,4.11-5.49l3,2.52c-1.29,1.71-2.61,3.48-3.78,5.19ZM156.58,283.06c-1.68-1.56-3.3-3.18-4.83-4.77l3-2.79c1.5,1.56,3,3,4.68,4.65l-2.85,2.91ZM428.83,279.85c-1-1.88-2.14-3.68-3.39-5.4l3.24-2.37c1.36,1.91,2.59,3.92,3.69,6l-3.54,1.77ZM172.92,273.55l-2.73-3c1.62-1.5,3.33-3,5.1-4.5l2.55,3c-1.71,1.56-3.36,3.03-4.92,4.5ZM142.94,267.79c-1.38-1.86-2.7-3.75-3.87-5.64l3.39-2.13c1.11,1.8,2.37,3.6,3.69,5.37l-3.21,2.4ZM416.71,264.8c-1.53-1.41-3.21-2.82-4.98-4.2l2.46-3c1.86,1.44,3.6,3,5.22,4.41l-2.7,2.79ZM188.34,261.2l-2.19-3.3c1.83-1.26,3.75-2.52,5.64-3.75l2.16,3.39c-1.8,1.17-3.81,2.4-5.61,3.66ZM400.91,253.07c-1.83-1.14-3.75-2.25-5.7-3.33l1.95-3.51c2.01,1.11,3.99,2.28,5.85,3.42l-2.1,3.42ZM205.25,250.85l-1.89-3.51c1.95-1.08,3.99-2.13,6-3l1.8,3.6c-1.98.78-4.02,1.83-5.91,2.88v.03ZM132.8,250.07c-.84-2.16-1.59-4.38-2.19-6.54l3.87-1.05c.57,2.01,1.26,4.08,2.04,6l-3.72,1.59ZM383.43,243.8l-6-2.67,1.56-3.69c2.07.9,4.17,1.8,6.18,2.73l-1.74,3.63ZM223.15,242.28l-1.56-3.69c2.04-.87,4.17-1.74,6.24-2.55l1.47,3.72c-2.04.69-4.17,1.56-6.15,2.43v.09ZM365.02,236.28c-2.07-.72-4.17-1.44-6.3-2.13l1.23-3.81c2.16.69,4.32,1.44,6.39,2.16l-1.32,3.78ZM241.77,235.08l-1.26-3.81c2.16-.69,4.32-1.38,6.48-2.01l1.14,3.84c-2.01.72-4.26,1.38-6.36,1.98ZM345.97,230.31c-2.13-.54-4.32-1.08-6.45-1.56l.9-3.9c2.16.48,4.38,1.02,6.57,1.59l-1.02,3.87ZM128.6,229.74v-6.84l3.99.18v6.48l-3.99.18ZM260.93,229.74l-.9-3.66c2.19-.51,4.41-.99,6.6-1.44l.78,3.93c-2.16.27-4.35.75-6.48,1.23v-.06ZM326.54,226.26l-2.46-.18-4.02-.48.42-3.99,4.17.51,2.55.39-.66,3.75ZM280.48,226.26l-.54-3.96c2.25-.3,4.5-.54,6.72-.75l.39,3.96c-2.19.18-4.38.57-6.57.72v.03ZM300.25,224.7v-3.99h6.75v4.02c-2.34-.12-4.56-.09-6.75-.06v.03ZM134.27,210.28l-3.9-.87c.48-2.25,1.11-4.47,1.8-6.63l3.81,1.26c-.68,2.05-1.25,4.13-1.71,6.24ZM141.23,192.29l-3.45-2.01c1.16-1.98,2.42-3.9,3.78-5.76l3.24,2.37c-1.31,1.72-2.52,3.51-3.63,5.37l.06.03ZM308.13,178.4c-2.3-.12-4.59-.37-6.87-.75l.66-3.96c2.12.36,4.27.6,6.42.72l-.21,3.99ZM153.46,177.27l-2.7-3c1.68-1.5,3.45-3,5.31-4.38l2.4,3.21c-1.74,1.35-3.45,2.73-5.01,4.17ZM288.1,173.76c-2.12-.88-4.2-1.88-6.21-3l1.92-3.51c1.89,1.03,3.83,1.96,5.82,2.79l-1.53,3.72ZM169.51,166.11l-1.89-3.54c1.98-1.02,4.05-2.04,6-3l1.62,3.66c-1.86.96-3.87,1.92-5.73,2.88ZM270.5,163.11c-1.71-1.17-3.53-2.17-5.43-3l1.68-3.63c2.1.98,4.11,2.16,6,3.51l-2.25,3.12ZM187.71,158.73l-1.17-3.84c2.13-.63,4.35-1.23,6.57-1.8l.93,3.9c-2.13.51-4.26,1.11-6.33,1.74ZM252.78,155.95c-2.04-.48-4.2-.9-6.42-1.26l.63-3.93c2.31.36,4.56.81,6.72,1.32l-.93,3.87ZM207.14,154.51l-.57-3.96c2.22-.3,4.5-.57,6.75-.78l.36,3.99c-2.34.36-4.53.36-6.54.75ZM233.44,153.34c-2.16,0-4.38-.18-6.6-.18v-3.99c2.28,0,4.56,0,6.78.18l-.18,3.99Z"></path><g id="character"><path class="cls-15" d="M258.47,204.37c-.09,1.35-.41,2.68-.93,3.93-.92,1.41-2.43,2.32-4.11,2.49-1.65.27-3.33.15-4.98.3-1.65.15-3.45,1.11-3.27,2.64.08.47.28.91.57,1.29l2.01,3.39c.26.33.39.75.36,1.17,0,.57-.75.87-1.29,1.11-2.75,1.4-4.78,3.89-5.61,6.87-.82,2.94-.82,6.05,0,9,.05.42.27.79.6,1.05.28.15.59.22.9.21,1.9.32,3.59,1.41,4.68,3,1.04,1.64,1.97,3.34,2.79,5.1,4.57,8.57,13.22,14.18,22.91,14.84.78.08,1.57-.02,2.31-.27.89-.45,1.6-1.18,2.04-2.07,2.07-3.78,1.47-8.31,1.62-12.44,0-2.05.38-4.09,1.14-6,.48-1.08.93-1.14,1.62-1.77.67-.44,1.07-1.18,1.08-1.98-.16-1.02-.41-2.02-.75-3-.25-1.88.18-3.8,1.2-5.4,1.02-1.57,1.95-3.19,2.79-4.86.58-1.55.95-3.18,1.08-4.83.86-4.22.14-8.6-2.01-12.32-1.7-2.41-4.36-3.97-7.29-4.29-1.19-.03-2.37-.17-3.54-.42-1.77-.57-2.37-2.4-4.23-3-1.61-.56-3.34-.67-5.01-.3-3.31.71-5.92,3.27-6.69,6.57Z"></path><path class="cls-17" d="M267.5,384.59c1.1.96,2.04,2.08,2.79,3.33.15.23.21.51.18.78,0,.42-.57.66-1.02.78-3.83.99-7.83-.76-9.72-4.23-1.39-1.99-2.14-4.35-2.16-6.78l.51-3.9c.06-.61.2-1.2.42-1.77.29-.55.66-1.06,1.11-1.5.74-.84,1.64-1.52,2.64-2.01.12-.04.24-.04.36,0,.24,0,.36.3.42.51.17,1,.11,2.03-.18,3-.35,2.86.32,5.74,1.89,8.16.76,1.32,1.69,2.54,2.76,3.63Z"></path><path class="cls-17" d="M277.55,362.52c.06.3.18.59.36.84.16.21.36.37.6.48,1.02.43,2.14.57,3.24.42,1.35,0,2.67-.27,3.99-.48.76,0,1.48-.38,1.89-1.02.2-.73-.14-1.51-.81-1.86-.65-.33-1.37-.54-2.1-.6-.74-.1-1.42-.43-1.95-.96-.75-.93-.42-2.4-1.2-3.3-.97-.73-2.23-.94-3.39-.57-2.43.75-1.14,5.34-.63,7.05Z"></path><path class="cls-15" d="M288.1,326.81c-.15.63-.27,1.26-.39,1.89-1.35,7.8-3,15.56-4.53,23.33-.19,1.71-.88,3.33-1.98,4.65-.61.76-1.55,1.17-2.52,1.11h-.27c-1.26-.42-1.98-2.19-1.98-3.96l.66-31.79c.1-.37.1-.77,0-1.14-.25-.34-.58-.61-.96-.78-.9-.48-1.77-.99-2.64-1.5-2.67-1.53-5.28-3.18-7.83-4.89-3.42-2.31-6.75-4.74-9.96-7.35-2.33-1.42-4.18-3.51-5.31-6-1.07-3.06-2.29-6.06-3.66-9-1.59-3.71-3.47-7.28-5.64-10.68-.27-.39-1.29-2.37-1.86-2.46l21.8,2.4c1.93-.08,3.82.58,5.28,1.86,2.38,2.77,4.54,5.72,6.48,8.82,4.53,6,9,12.2,13.61,18.29,1.9,2.04,3.1,4.62,3.45,7.38-.26,3.32-.85,6.61-1.77,9.81Z"></path><path class="cls-15" d="M263.33,371.82c-.29.41-.65.77-1.05,1.08-.62.54-1.3.99-2.04,1.35h-.21c-.84.34-1.77.34-2.61,0-2.19-.93-1.53-6.3-1.65-8.4-.21-3.3-.39-6.57-.6-9.87-.36-6.42-.75-12.83-1.11-19.28-.18-3-.39-6-.54-9l-1.11-1.95-.51-.87-.6-1.05-.63-1.17c-.36-.6-.72-1.26-1.11-1.95-.63-1.17-1.23-2.4-1.86-3.6-.39-.81-.83-1.59-1.32-2.34-.16-.25-.34-.49-.54-.72-1.2-1.3-2.49-2.51-3.87-3.63-4.15-3.86-6.91-8.98-7.86-14.57-.25-1.53-.35-3.07-.3-4.62.03-2.4.42-4.79,1.14-7.08.57-1.63,1.29-3.21,2.16-4.71.68-1.33,1.6-2.53,2.7-3.54.52-.48,1.1-.87,1.74-1.17,4.14-1.89,8.34,2.82,11.21,5.31s7.86,6,9.42,9.75c1.56,3.75,4.5,35.23,4.5,35.23,0,7.74,0,15.47-.45,23.18-.18,4.59-.39,9.18-.84,13.73-.02,3.39-.72,6.75-2.07,9.87Z"></path><path class="cls-8" d="M260.24,374.24h-.21c-.84.34-1.77.34-2.61,0-2.19-.93-1.53-6.3-1.65-8.4-.21-3.3-.39-6.57-.6-9.87-.36-6.42-.75-12.83-1.11-19.28-.18-3-.39-6-.54-9l-1.11-1.95-.51-.87-.6-1.05-.63-1.17c-.36-.6-.72-1.26-1.11-1.95l-2.13-3.81-1.59-3c-1.2-1.3-2.49-2.51-3.87-3.63-4.12-3.82-6.88-8.89-7.86-14.42-.25-1.53-.35-3.07-.3-4.62.03-2.4.42-4.79,1.14-7.08.57-1.63,1.29-3.21,2.16-4.71.68-1.33,1.6-2.53,2.7-3.54.24.22.45.47.63.75,2.28,3.27,2.16,7.56,2.4,11.54.15,4.97,1.17,9.89,3,14.51h0l.81,1.65h0c.11.24.23.47.36.69,3.13,4.96,5.9,10.13,8.31,15.47,4.71,11.99,3,25.13,3.6,37.84.19,3.52.57,7.02,1.14,10.5.35,1.77.41,3.58.18,5.37Z"></path><path class="cls-17" d="M327.41,276.01h-3.66c-1.26-.1-2.5-.4-3.66-.9-1.11-.51-2.04-1.29-3.18-1.77-2.34-1.02-4.89-1.5-7.17-2.67-3.45-1.74-6.78-3.72-10.08-5.67l-7.98-4.74c-2.69-1.54-5.31-3.22-7.83-5.04l-1.47-1.14c-.72-.6-1.62-1.26-2.52-.99-.37.17-.69.42-.96.72-1.04,1.43-1.7,3.1-1.92,4.86-.39,1.53-.99,3-1.77,4.38-1.47,2.7-2.85,5.46-4.44,8.07-1.15,2.55-2.78,4.86-4.8,6.81-1.32.7-2.84.96-4.32.75-3.17-.42-6.37-.55-9.57-.36-1.46.34-2.94.58-4.44.72-2.31-.05-4.54-.83-6.39-2.22-1.62-1.26-.9-3-.24-4.65,2.52-6.57,5.01-10.41,2.07-17.15.57,1.32-11.63,6-13.16,6-6.39,0-10.2-4.68-14.99-8.31-2.85-2.09-5.86-3.97-9-5.61-.95-.55-1.96-1.02-3-1.38-.99-.33-2.28-.3-3-.99-.3-.27-.56-.59-.78-.93-.4-.62-.72-1.28-.96-1.98-.2-.83-.63-1.59-1.23-2.19-.9-.53-1.98-.69-3-.45-.55.06-1.1.06-1.65,0-.21,0-.41-.11-.54-.27-.15-.2-.15-.49,0-.69.21-.14.44-.24.69-.3l4.11-.87c-1.17-1.02-3-.75-4.44-1.23-.19-.05-.37-.16-.51-.3-.15-.35.01-.75.36-.9.35-.11.73-.11,1.08,0l4.44.51c-1.32-1.62-4.14-1.14-5.49-2.73,1.07-.71,2.42-.84,3.6-.33,1.73.25,3.4.78,4.95,1.59.94.55,1.81,1.21,2.58,1.98,2.96,3.22,6.15,6.22,9.54,9,2.37,1.54,4.93,2.76,7.62,3.63,1.17.42,2.4.69,3.57,1.08s2.64,1.11,3.93,1.65c.48.26,1.02.39,1.56.39.44-.08.85-.25,1.23-.48,2.71-1.66,5.1-3.78,7.08-6.27,2.13-2.52,4.62-4.74,6.87-7.14.87-1.03,1.96-1.86,3.18-2.43,2.28-.78,4.71.36,7.14.45,2.05.1,4.04-.67,5.49-2.13,1.41-1.65,1.35-4.11,3-5.76.93-.88,2.08-1.48,3.33-1.74,1.37-.44,2.7-.99,3.99-1.65,1.02-.48,2.31-.93,3.21-.24.28.18.45.5.45.84,0,.29-.1.57-.27.81-.64,1.25-1.21,2.53-1.71,3.84-.65,1.32-.9,2.8-.72,4.26.42,2.07,3,3.24,4.74,3.99,2.52,1.08,5.31,1.26,7.83,2.28,2.51,1.16,4.76,2.81,6.63,4.86,3,3,5.49,6,8.22,9,1.38,1.5,2.79,3,4.32,4.41,2.03,1.43,4.18,2.7,6.42,3.78,2.48,1.63,5.07,3.06,7.77,4.29,1.92.86,3.93,1.52,6,1.95.84.24,1.69.44,2.55.6.9,0,1.38-.3,2.13-.75,1.14-.6,2.47-.76,3.72-.45,2.71.6,5.24,1.81,7.41,3.54.63.42,1.32,1.05,1.2,1.8.03.1.03.2,0,.3-.24.21-.6,0-.87-.21-.93-.67-2.07-.98-3.21-.87.84.66,1.74,1.47,1.65,2.52.03.08.03.16,0,.24-.08.04-.18.04-.27,0-.93,0-1.62-.87-2.49-1.29-.84-.39-1.77-.55-2.7-.48-.42,0-1.77,0-1.77.54-.03.09-.03.18,0,.27.25.33.54.62.87.87.33.25.49.67.39,1.08-.21.42-.78.48-1.26.45-1.26-.06-2.34-.33-3.48-.45Z"></path><path class="cls-9" d="M323.63,275.59c-.33.2-.7.34-1.08.39-1.24-.09-2.42-.59-3.33-1.44-3.09-1.53-6.27-2.86-9.54-3.96-3.45-1.74-6.78-3.72-10.08-5.67l-7.92-4.65c-2.69-1.54-5.31-3.22-7.83-5.04.69.51,3.54-3.81,4.02-4.2,2.79-2.28,1.8,2.61,1.74,4.26-.06.33-.06.66,0,.99.22.43.56.77.99.99,5.04,3.3,10.23,6.36,15.56,9.18,2.7,1.41,5.49,2.7,8.22,4.08,2.25,1.14,4.68,1.8,7.02,2.73.99.39,2.1.99,2.13,2.04.05.09.08.2.09.3Z"></path><path class="cls-7" d="M261.86,229.35c.07,1.05-.18,2.1-.72,3-.78,1.05,4.44,2.43,6,.93,1.63-1.83,3.13-3.76,4.5-5.79l-9.78,1.86Z"></path><path class="cls-17" d="M268.04,229.71c-1.67.65-3.5.79-5.25.39-1.75-.43-3.22-1.63-3.99-3.27-.38-1.1-.53-2.26-.45-3.42.19-5.61,2.12-11.03,5.52-15.5.5-.74,1.16-1.36,1.92-1.83,1.04-.5,2.22-.61,3.33-.3,2.13.56,4.03,1.81,5.4,3.54,1.35,1.71,2.5,3.57,3.42,5.55.66,1.23,1.89,3.18,1.32,4.62-.83,1.33-1.84,2.54-3,3.6-2.08,2.92-4.92,5.21-8.22,6.63Z"></path><path class="cls-16" d="M269.69,278.38c-1.43,2.28-4.01,3.57-6.69,3.36-5.19.42-10.41-.93-15.56,0-1.59.27-3,.75-4.74.87h-.45c-1.77.17-3.51-.51-4.71-1.83-1.62-2.13-.6-5.19.45-7.68,1.95-4.47,5.61-9.6,3.51-14.57h0c-.27-.54-.63-1.02-.87-1.56-.25-.59-.42-1.2-.51-1.83l-.78-3.84c-.54-2.55-1.05-5.1-1.59-7.68-.12-.51-.12-1.05,0-1.56.26-.67.74-1.24,1.35-1.62l5.43-4.32c1.06-.99,2.33-1.72,3.72-2.13,1.47-.13,2.96-.05,4.41.24,1.93-.07,3.84-.38,5.7-.93h.69c.19.18.29.43.3.69.21.84.6,1.63,1.14,2.31.39.48.81.93,1.26,1.35l.57.54,3.27,3c.69.72,1.49,1.33,2.37,1.8,3,1.35,5.13-2.25,4.98-4.92-.17-1.5-.62-2.95-1.32-4.29,1.38.54,2.76,1.14,4.14,1.77,1.25.74,2.55,1.4,3.9,1.95,2.1.57,4.11,0,6,1.32,2.5,1.62,4.79,3.54,6.84,5.7l-1.38,3.18c-1.83,3.84-3.96,7.98-7.86,9.66-1.02.42-2.07.69-3,1.17-1.68.84-1.86,2.16-2.61,3.66-1.29,2.61-2.58,5.22-3.75,7.86-1.17,2.89-2.58,5.68-4.2,8.34Z"></path><path class="cls-13" d="M275.12,240.87c.24-.3.55-.53.9-.69.29-.07.58-.07.87,0,3.78.3,7.56.72,11.3,1.23-4.65-4.14-11.99-3.96-16.97-7.47-.69,1.29,0,2.79.36,4.2.21,1.27.21,2.57,0,3.84,1.29.3,2.65-.13,3.54-1.11Z"></path><path class="cls-14" d="M201.8,244.07c-.83.22-1.71.14-2.49-.21-.4-.62-.73-1.28-.96-1.98-.2-.83-.63-1.59-1.23-2.19-.91-.53-1.98-.69-3-.45.57-.36,1.22-.55,1.89-.57.73-.02,1.4-.4,1.8-1.02,0-.24,0-.54.3-.75s.78-.27,1.2-.21c.85.2,1.67.5,2.46.87.57.21,1.08.52,1.53.93.43.32.72.81.78,1.35-.27,0-.66-.3-.93-.45-.34-.18-.71-.32-1.08-.42-.76-.2-1.55-.27-2.34-.21h-.27s0,.27.18.36c1.11.87,2.52,1.29,3.6,2.22.18.1.31.26.39.45.1.25.1.53,0,.78-.3.79-1,1.36-1.83,1.5Z"></path><path class="cls-18" d="M289.66,361.2c-.92-.51-2.01-.6-3-.24-.45.3-.88.63-1.29.99-1.29.51-2.73.51-4.02,0-1.42-.44-2.87-.75-4.35-.93,0,0,0,3,.54,3.27.71.25,1.44.39,2.19.42,2.99.38,6.01.38,9,0,.84-.18,3.66-.63,4.05-1.56s-2.34-1.68-3.12-1.95Z"></path><path class="cls-18" d="M272.3,388.49c.54.6.89,1.36.99,2.16.01.28-.07.56-.24.78-.2.15-.44.24-.69.27-1.97.43-4,.49-6,.18-1.97-.31-3.77-1.28-5.1-2.76-.87-1.05-1.44-2.31-2.25-3.39s-1.56-1.77-2.19-2.76,0-2.76.48-3.84c.54,0,.36,1.05.6,1.53.82,1.76,1.98,3.34,3.42,4.65,1.24,1.43,3.03,2.27,4.92,2.34.69,0,1.34-.34,1.74-.9.3-.48,0-1.59.51-1.77s3.33,3.03,3.81,3.51Z"></path><path class="cls-12" d="M278.81,357.78h-.27c-1.26-.42-1.98-2.19-1.98-3.96l.54-31.79c.1-.37.1-.77,0-1.14-.25-.34-.58-.61-.96-.78-.9-.48-1.77-.99-2.64-1.5-2.67-1.53-5.28-3.18-7.83-4.89l-1.56-12.68s15.8,10.47,17.45,15.38c1.65,4.92-2.76,41.35-2.76,41.35Z"></path><path class="cls-15" d="M271.28,216.19c1.19.44,2.41.79,3.66,1.05,1.23.42,2.46,1.35,2.49,2.61,1.05,0,1.62-1.2,1.92-2.19.61-1.65,1.01-3.38,1.2-5.13.17-1.76-.25-3.52-1.2-5.01-1.71-2.43-8.04-6.99-10.05-2.73-1.53,3.3-1.71,9.48,1.98,11.39Z"></path><path class="cls-18" d="M303.09,346.63c-2.22-.36-4.44-.72-6.66-1.14l.72-3.93c2.19.39,4.38.78,6.57,1.11l-.63,3.96Z"></path></g><g id="icon_5"><polygon class="cls-16" points="111.66 137.92 206.42 107.67 230.11 205.6 150.79 246.2 111.66 137.92"></polygon><path class="cls-15" d="M159.67,169.92c-.01-2.61.55-5.19,1.65-7.56l-11.15-6.15c-2.12,4.26-3.22,8.95-3.21,13.7.05,14.17,9.68,26.51,23.42,29.99l2.28-12.68c-7.66-2.29-12.92-9.31-12.98-17.3Z"></path><path class="cls-3" d="M204.5,185.87c-5.64,9.33-15.76,15.02-26.66,14.99-2.57,0-5.13-.32-7.62-.96l2.28-12.68c1.73.52,3.53.78,5.34.78,6.22.01,12.01-3.16,15.35-8.4l11.3,6.27Z"></path><path class="cls-18" d="M208.91,169.92c0,5.62-1.52,11.13-4.41,15.95l-11.3-6.15c5.47-8.44,3.06-19.71-5.37-25.17-8.44-5.47-19.71-3.06-25.17,5.37-.5.78-.95,1.59-1.33,2.44l-11.15-6.15c7.56-15.39,26.15-21.73,41.54-14.18,10.63,5.22,17.36,16.04,17.35,27.88h-.15Z"></path></g><g id="icon_4"><polygon class="cls-16" points="343.28 385.61 351.85 329.45 417.04 325.16 403.04 379.49 343.28 385.61"></polygon><g id="G8KHDO"><path class="cls-18" d="M363.07,368.28c-.02-.35.11-.68.36-.93.56-.57.96-1.27,1.17-2.04.26-.99-.14-2.04-.99-2.61-.51-.39-1.09-.67-1.71-.84-.63-.17-1.04-.79-.96-1.44v-1.2c.05-.76.7-1.34,1.46-1.29,0,0,0,0,0,0,.59,0,1.17-.14,1.71-.39,1.2-.46,1.84-1.77,1.47-3-.15-.53-.34-1.04-.57-1.53-.28-.59-.11-1.29.42-1.68.31-.22.61-.46.9-.72.55-.42,1.31-.42,1.86,0,.44.44.96.8,1.53,1.05,1.07.46,2.32.11,3-.84.4-.54.69-1.15.87-1.8.21-.62.85-.99,1.5-.87h1.2c.66.06,1.17.62,1.17,1.29.03.78.24,1.53.6,2.22.54.91,1.6,1.39,2.64,1.2.58-.12,1.15-.32,1.68-.6.64-.37,1.46-.18,1.86.45.21.36.54.66.78,1.02.33.52.27,1.2-.15,1.65-.45.46-.81,1.01-1.05,1.62-.55,1.23-.02,2.67,1.2,3.24.44.26.9.47,1.38.63.59.17.98.71.96,1.32,0,.48,0,.96-.18,1.47-.09.65-.66,1.13-1.32,1.11-.71.03-1.4.2-2.04.51-1,.47-1.55,1.55-1.35,2.64.1.62.29,1.21.57,1.77.4.61.24,1.43-.37,1.83-.02.01-.03.02-.05.03l-.84.63c-.51.51-1.34.51-1.86,0-.49-.47-1.07-.82-1.71-1.05-1.1-.43-2.35-.03-3,.96-.37.52-.64,1.1-.81,1.71-.19.61-.78.99-1.41.9l-1.41-.18c-.59-.11-1.03-.6-1.08-1.2,0-.73-.17-1.44-.48-2.1-.51-1.15-1.8-1.73-3-1.35-.57.16-1.12.36-1.65.6-.55.28-1.23.16-1.65-.3-.3-.39-.6-.75-.87-1.17-.14-.23-.24-.49-.3-.75l.51.03ZM374.28,357.03c-2.42-.02-4.39,1.93-4.41,4.35-.02,2.42,1.93,4.39,4.35,4.41,2.42.02,4.39-1.93,4.41-4.35,0,0,0-.02,0-.03,0-2.42-1.96-4.38-4.38-4.38-.02,0-.04,0-.06,0h.09Z"></path><path class="cls-18" d="M396.23,355.56c.01.17.01.34,0,.51-.02.43-.33.79-.75.87l-.9.24c-.49.13-1-.11-1.2-.57-.21-.36-.42-.72-.66-1.05-.64-.85-1.84-1.02-2.69-.38-.03.03-.07.05-.1.08-.3.23-.58.48-.84.75-.32.37-.87.46-1.29.21l-.72-.42c-.52-.26-.75-.88-.51-1.41.15-.42.24-.85.27-1.29.07-1-.66-1.87-1.65-1.98-.47-.03-.94-.03-1.41,0-.49-.01-.88-.39-.93-.87-.04-.25-.1-.5-.18-.75-.15-.5.09-1.04.57-1.26.45-.22.86-.5,1.23-.84.68-.61.79-1.62.27-2.37-.24-.32-.5-.63-.78-.93-.49-.31-.63-.96-.32-1.45.02-.04.05-.08.08-.11l.36-.66c.27-.45.84-.63,1.32-.42.51.21,1.07.3,1.62.24.78-.02,1.44-.56,1.62-1.32.11-.49.16-1,.15-1.5-.04-.47.24-.92.69-1.08l1.05-.24c.5-.14,1.01.14,1.17.63.23.54.59,1.01,1.05,1.38.69.58,1.71.58,2.4,0,.27-.21.52-.44.75-.69.32-.39.87-.5,1.32-.27l.87.51c.42.26.58.78.39,1.23-.19.49-.28,1.01-.27,1.53,0,.94.69,1.73,1.62,1.86h1.26c.53-.05,1,.32,1.08.84,0,.3.15.6.21.9.14.46-.11.95-.57,1.11-.49.21-.93.51-1.29.9-.58.57-.71,1.46-.3,2.16.26.42.57.8.93,1.14.44.34.55.97.24,1.44l-.42.69c-.24.49-.83.7-1.32.46,0,0-.02,0-.03-.01-.64-.21-1.34-.21-1.98,0-.66.2-1.16.76-1.29,1.44-.03.34-.03.68,0,1.02l-.12-.27ZM392.51,344.05c-1.81-.02-3.28,1.43-3.3,3.24,0,.01,0,.02,0,.03-.02,1.82,1.45,3.31,3.27,3.33,1.82.02,3.31-1.45,3.33-3.27.02-1.82-1.45-3.31-3.27-3.33,0,0-.02,0-.03,0Z"></path></g></g><g id="icon_3"><polygon class="cls-18" points="106.17 331.9 151.24 360.12 166.39 309.89 116.67 275.98 106.17 331.9"></polygon><circle class="cls-15" cx="132.11" cy="317.84" r="14.18"></circle><path class="cls-16" d="M132.17,301.05v17.33l15.26-11s-7.05-7.68-15.26-6.33Z"></path></g><g id="icon_2"><path class="cls-18" d="M216.49,364.77l-3.36-.75.99-3.9c1.08.3,2.13.57,3.21.81l-.84,3.84Z"></path><polygon class="cls-18" points="231.07 366.06 212.27 371.34 218.77 383.9 232.12 380.15 231.07 366.06"></polygon><polygon class="cls-10" points="231.07 366.06 212.27 371.34 218.77 383.9 232.12 380.15 231.07 366.06"></polygon><path class="cls-18" d="M200.54,339.79c-.17,1.08-.07,2.18.3,3.21,1.07,4.83,2.98,9.44,5.64,13.61,4.17,6,10.68,9.75,16.97,13.37-.54-.45-.45-3.78-.54-4.53l-.45-4.44c-.38-2.34-1.3-4.57-2.67-6.51-2.75-4.52-6.53-8.32-11.03-11.09-2.55-1.59-5.32-2.81-8.22-3.63Z"></path><path class="cls-11" d="M200.54,339.79c-.17,1.08-.07,2.18.3,3.21,1.07,4.83,2.98,9.44,5.64,13.61,4.17,6,10.68,9.75,16.97,13.37-.54-.45-.45-3.78-.54-4.53l-.45-4.44c-.38-2.34-1.3-4.57-2.67-6.51-2.75-4.52-6.53-8.32-11.03-11.09-2.55-1.59-5.32-2.81-8.22-3.63Z"></path><path class="cls-18" d="M226.45,349.03c.64-3.97.75-8,.33-11.99-.48-4.07-2.55-7.78-5.76-10.32l-4.71,16.55c-1.07,3.14-1.65,6.43-1.71,9.75.5,6.61,3.77,12.69,9,16.76,1.5-2.37,1.17-6.63,1.5-9.42l1.35-11.33Z"></path><path class="cls-6" d="M226.45,349.03c.64-3.97.75-8,.33-11.99-.48-4.07-2.55-7.78-5.76-10.32l-4.71,16.55c-1.07,3.14-1.65,6.43-1.71,9.75.5,6.61,3.77,12.69,9,16.76,1.5-2.37,1.17-6.63,1.5-9.42l1.35-11.33Z"></path><path class="cls-18" d="M210.31,366.94l20.18-5.68c1.69-.48,3.44.5,3.92,2.18h0c.47,1.68-.51,3.43-2.2,3.91l-20.18,5.68c-1.69.48-3.44-.5-3.92-2.18h0c-.47-1.68.51-3.43,2.2-3.91Z"></path></g><g id="icon_1"><polygon class="cls-18" points="342.53 278.44 373.38 213.13 428.5 226.26 397.1 292.29 342.53 278.44"></polygon><polygon class="cls-16" points="364.63 269.08 358.93 267.79 363.4 258.95 369.12 260.24 364.63 269.08"></polygon><polygon class="cls-18" points="371.67 270.64 365.95 269.38 375.09 251.36 380.82 252.62 371.67 270.64"></polygon><polygon class="cls-16" points="378.72 272.23 372.99 270.94 378.57 259.97 384.27 261.26 378.72 272.23"></polygon><polygon class="cls-18" points="385.74 273.82 380.04 272.53 392.09 248.81 397.79 250.1 385.74 273.82"></polygon><polyline class="cls-4" points="380.82 252.62 371.67 270.64 365.95 269.38 375.09 251.36 380.82 252.62"></polyline><polygon class="cls-5" points="385.74 273.82 380.04 272.53 392.09 248.81 397.79 250.1 385.74 273.82"></polygon><polygon class="cls-16" points="392.78 275.41 387.09 274.12 402.5 243.77 408.2 245.06 392.78 275.41"></polygon></g></svg>