<svg transform="scale(1)" id="MIkFuF1pkE" xmlns="http://www.w3.org/2000/svg" xmlns:xlink="http://www.w3.org/1999/xlink" viewBox="0 0 500 500" class="pbimage_pbimage__wrapper__image__0LEis false"><title>Approval 2</title><defs><style> .cls-1{fill:url(#linear-gradient-MIkFuF1pkE);} .cls-1, .cls-2, .cls-3, .cls-4, .cls-5, .cls-6, .cls-7, .cls-8, .cls-9, .cls-10, .cls-11, .cls-12, .cls-13, .cls-14, .cls-15, .cls-16, .cls-17{stroke-width:0px;} .cls-2{opacity:.18;} .cls-2, .cls-4{isolation:isolate;} .cls-2, .cls-17{fill:#68e1fd;} .cls-3{fill:url(#linear-gradient-10-MIkFuF1pkE);} .cls-4{opacity:.3;} .cls-4, .cls-15{fill:#fff;} .cls-5{fill:url(#linear-gradient-4-MIkFuF1pkE);} .cls-6{fill:url(#linear-gradient-2-MIkFuF1pkE);} .cls-7{fill:url(#linear-gradient-3-MIkFuF1pkE);} .cls-8{fill:url(#linear-gradient-8-MIkFuF1pkE);} .cls-9{fill:url(#linear-gradient-9-MIkFuF1pkE);} .cls-10{fill:url(#linear-gradient-7-MIkFuF1pkE);} .cls-11{fill:url(#linear-gradient-5-MIkFuF1pkE);} .cls-12{fill:url(#linear-gradient-6-MIkFuF1pkE);} .cls-13{fill:#473f47;} .cls-14{fill:#de9f93;} .cls-16{fill:#ffb4a3;}
 .cls-4, .cls-15{fill:#FFFFFF;}
 .cls-2, .cls-17{fill:#68E1FD;}
 .cls-16{fill:#FFB4A3;}
 .cls-14{fill:#DE9F93;}
 .cls-13{fill:#473F47;}</style><linearGradient id="linear-gradient-MIkFuF1pkE" x1="196.4" y1="3618.38" x2="311.86" y2="3282.17" gradientTransform="translate(-56 3498) scale(1 -1)" gradientUnits="userSpaceOnUse"><stop offset="0" stop-color="#000" style="stop-color: rgb(0, 0, 0);"></stop><stop offset=".08" stop-color="#000" stop-opacity=".69" style="stop-color: rgb(0, 0, 0);"></stop><stop offset=".21" stop-color="#000" stop-opacity=".32" style="stop-color: rgb(0, 0, 0);"></stop><stop offset="1" stop-color="#000" stop-opacity="0" style="stop-color: rgb(0, 0, 0);"></stop></linearGradient><linearGradient id="linear-gradient-2-MIkFuF1pkE" x1="278.82" y1="3316.16" x2="315.25" y2="3194.75" xlink:href="#linear-gradient-MIkFuF1pkE"></linearGradient><linearGradient id="linear-gradient-3-MIkFuF1pkE" x1="368.41" y1="3342.69" x2="383.69" y2="3282.66" xlink:href="#linear-gradient-MIkFuF1pkE"></linearGradient><linearGradient id="linear-gradient-4-MIkFuF1pkE" x1="434.8" y1="3185.09" x2="369.15" y2="3240.85" xlink:href="#linear-gradient-MIkFuF1pkE"></linearGradient><linearGradient id="linear-gradient-5-MIkFuF1pkE" x1="306.3" y1="3266.9" x2="311.23" y2="3159.6" gradientTransform="translate(-56 3498) scale(1 -1)" gradientUnits="userSpaceOnUse"><stop offset="0" stop-color="#fff" style="stop-color: rgb(255, 255, 255);"></stop><stop offset="1" stop-color="#f4f2f4" style="stop-color: rgb(244, 242, 244);"></stop></linearGradient><linearGradient id="linear-gradient-6-MIkFuF1pkE" x1="312.82" y1="3028.69" x2="311.48" y2="3171.24" xlink:href="#linear-gradient-5-MIkFuF1pkE"></linearGradient><linearGradient id="linear-gradient-7-MIkFuF1pkE" x1="293.72" y1="3737.67" x2="317.9" y2="2931.64" xlink:href="#linear-gradient-MIkFuF1pkE"></linearGradient><linearGradient id="linear-gradient-8-MIkFuF1pkE" x1="219.09" y1="3408.08" x2="233.47" y2="3274.02" xlink:href="#linear-gradient-MIkFuF1pkE"></linearGradient><linearGradient id="linear-gradient-9-MIkFuF1pkE" x1="450.49" y1="3391.58" x2="460.85" y2="3294.97" xlink:href="#linear-gradient-MIkFuF1pkE"></linearGradient><linearGradient id="linear-gradient-10-MIkFuF1pkE" x1="267.97" y1="3121.39" x2="244.7" y2="3297.44" xlink:href="#linear-gradient-MIkFuF1pkE"></linearGradient></defs><path class="cls-2" id="background" d="M480.57,305.63c-7.32,21.21-19.32,40.51-35.1,56.46-13.68,13.95-29.9,25.15-47.79,33-12.13,5.33-24.96,8.88-38.11,10.52-29.41,3.6-62.61,1.2-90.7,11.47-27.34,10-48.41,27.55-78.74,29.6-24.87,1.68-51.16-4.35-75.74-15.71-17.41-8.08-33.63-18.51-48.19-31.01-31.29-26.95-53.41-62.39-55.1-97.89-1.36-28.27,11.71-61.35,34.92-77,25.16-16.92,41.62-41.77,56.44-67.7,17.43-30.48,35.18-63.17,65.58-80.73,24.71-14.27,59.08-19.53,87.07-22.09,7-.64,123.44-9.44,190.57,75.31,37.85,47.82,54.52,117.76,34.89,175.77Z"></path><rect class="cls-1" x="187.4" y="85.97" width="73.16" height="74.01"></rect><g id="character"><path class="cls-16" d="M166.98,260.97c-1.7-.49-3.45-.75-5.22-.78-2.2.13-4.36.59-6.42,1.37-2.95.99-5.84,2.14-8.66,3.44-1.46.67-3.11,1.68-3.2,3.28,2.13,1.3,4.86.55,7.27-.11,2.45-.67,4.93-1.21,7.43-1.61-1.41,2.71-2.49,5.59-3.22,8.56-.46,1.34-.44,2.79.05,4.12.69,1.39,2.23,2.1,3.66,2.7,2.86,1.21,5.91,2.43,9,1.94,1.84-.4,3.61-1.12,5.21-2.12l3.57-1.94c.27-.12.5-.3.69-.53.13-.23.22-.48.25-.74l1.35-6.83c.25-1.32,1.7-5.23,1-6.31-.38-.56-2.33-1-3-1.2-1.05-.4-2.1-.8-3.16-1.18-2.2-.77-4.38-1.49-6.6-2.06Z" fill="#FFB4A3"></path><path class="cls-17" d="M311,234.33c-2.37,10.66-8.4,20.13-14.66,29.09-7.72,10.86-17.86,19.76-29.63,26-7.41,3.94-15.06,7.94-23.4,8.78-6,.61-12.06-.46-18-1.54l-29.8-5.39c-5.95-1.07-12.29-2.34-16.6-6.58-2.63-2.7-4.15-6.28-4.26-10.05h0c-.26-4.2,1.24-8.31,4.13-11.37l43.3,6.75c2.89.44,5.89.89,8.71.08,3.11-.9,5.6-3.23,7.86-5.56,9.51-9.83,17.46-21.06,23.55-33.3,4.25-8.57,6-18.48,11.77-26.32,6.93-9.46,21.46-9,29.64-1.09,5.3,5.14,7.9,12.35,8.31,19.79.18,3.6-.13,7.2-.92,10.71Z"></path><path class="cls-6" d="M311,234.33c-2.37,10.66-8.4,20.13-14.66,29.09-7.72,10.86-17.86,19.76-29.63,26-7.41,3.94-15.06,7.94-23.4,8.78-6,.61-12.06-.46-18-1.54l-29.8-5.39c-5.95-1.07-12.29-2.34-16.6-6.58-2.63-2.7-4.15-6.28-4.26-10.05,7.57,3.85,27.69,9.32,30.44,10,11.33,2.79,23.84,5.63,35.42,3.51,7.12-1.3,14.3-4.09,17.45-10.9,3.62-7.85,6.89-16.09,9.78-24.28,2.89-8.19,6.09-16.72,11.76-23.44,5.67-6.72,14.44-11.5,23.11-10.1,3.4.57,6.6,2,9.3,4.15.19,3.61-.12,7.22-.91,10.75Z"></path><path class="cls-17" d="M274.93,274.41c-1.36-8.87-2.55-17.76-3.43-26.68-1.14-11.69-3.67-25.81-.46-37.22,2.32-7.6,8.12-11.64,14.63-16.32,5.41-4.22,11.5-7.49,18-9.68,4.63-1.22,9.42-1.75,14.21-1.58,14.72.31,34.76,4.51,46.39,14.12,8.74,7.23,11.64,19.18,13.75,30.32,2.9,15.39,5.18,30.87,6.83,46.44.25,2.25.49,4.51.68,6.78,1.54,17.13,3.1,34.92,1,52.06-.64,5.39-1.39,10.81-5.66,14.35-10.06,8.37-27.74,7.67-40.07,8-16.39.42-33.21.8-48.7-4.57-3.17-.78-5.95-2.68-7.83-5.36-1.83-3.26-.95-7.28-.47-11,2.14-16.58-4.37-32.56-7.08-48.67-.63-3.69-1.22-7.35-1.79-10.99Z"></path><path class="cls-7" d="M308.2,183.79s-9.45,14.34,1.85,17.37c11.3,3.03,31.15-11.46,28.15-15.29s-27.69-3.43-30-2.08Z"></path><path class="cls-5" d="M359.2,238.37c-.94-1.46-7.43-13.55-8.72-13.11-2.23.92-3.87,2.85-4.41,5.2-.51,2.32-.61,4.71-.31,7.07.58,7.45,1.56,15,.51,22.37-1.05,7.37-4.48,14.86-10.82,18.83-6.15,3.85-14.08,3.89-20.32,7.6-.74.51-1.54.92-2.38,1.23-.93.23-1.9.3-2.86.22-6.97-.2-13.95.05-20.89.76-1,.1-2.34.65-2.08,1.63.11.44.53.71.91,1,3.03,1.95,5.61,4.52,7.57,7.54,1,1.46,1.83,3.02,2.48,4.67.3.87.23,2.07.55,2.84s4.66,6.75,5.39,6.72l58.46-1.79,12.14-46.77-10.22-17.45c-1.75-2.89-3.23-5.79-5-8.56Z"></path><path class="cls-16" d="M288.2,164.29c-.65-4.25-1.1-8.6-1.34-12.81-.23-3.75-.27-7.55-.16-11.31.08-2.43,0-4.28,1.87-6.05,5.08-4.45,11.33-7.34,18-8.35,5-.86,10.62-.55,14.58,2.63,2.76,2.5,4.68,5.8,5.5,9.43,2.57,9.12,1.71,18.76,1.92,28.23.15,7.33.99,14.63,2.5,21.8-3.11,2.9-6.89,5-11,6.1-1.95.31-3.94.31-5.89,0-1.07-.03-2.09-.48-2.85-1.24-.41-.72-.62-1.54-.61-2.37-.01-.77-.07-1.54-.17-2.3h0c-.4-4.28-1.19-8.51-2.35-12.65-.05-.36-.24-.68-.53-.89-.29-.09-.61-.09-.9,0l-1.18.2c-2.08.52-4.2.86-6.34,1-2.56.16-5.1-.61-7.13-2.18-2.59-2.13-3.42-5.86-3.92-9.24Z" fill="#FFB4A3"></path><path class="cls-13" d="M290.67,133.94c-1.78,1.59-3.15,3.58-4,5.81-3.03-1.65-4.15-5.45-2.49-8.48.12-.22.25-.43.39-.63-5.76-1.28-7.32-8.63-4.88-13.35.88-1.51,2.11-2.78,3.59-3.71,2.79-1.98,6.05-3.21,9.46-3.57,5-.41,9.88,1.44,14.13,4,.89.66,1.91,1.13,3,1.36.98.05,1.96-.08,2.89-.38,6.11-1.45,12.85-.87,18.21,2.4,3.14,1.92,5.74,4.7,9.06,6.31,2.79,1.37,6.15,2,8.09,4.4,1.7,2.37,1.88,5.51.46,8.06-1.45,2.49-3.73,4.38-6.45,5.33,1.83,3.09.81,7.08-2.28,8.91-.05.03-.11.06-.16.09-1,.5-2.25.78-3,1.63-.59.64-.77,1.53-1.37,2.21-1.39,1.58-3.42,2.4-3.73,4.77-.04,1,.03,2.01.21,3,.13,1.46-.22,2.92-1,4.17-.52.8-1.36,2.72-2.26,3.05s-1.94-.61-2.39-1.54c-1.78-3.63-2-7.74-1.76-11.7.2-3.14,4.36-3.14,4.57-6.75.14-2.48-2.34-4.9-4.76-4.3-2.93.73-4,4.79-6.85,5.68l.88-10.43c.07-.45.07-.9,0-1.35-.11-.37-.26-.74-.44-1.08-.76-1.73-.79-3.7-.08-5.46-3.59,1.76-7.51,2.74-11.51,2.87-4.03.1-7.93-1.41-10.84-4.2-1.73.66-3.32,1.63-4.69,2.88Z" fill="#473F47"></path><path class="cls-14" d="M305.66,174.73c4.73-1.74,9.27-3.97,13.54-6.64,2.92,14.84-8.67,20-8.67,20h0c-.39-4.29-1.17-8.53-2.33-12.68-.05-.36-.25-.68-.54-.89-.29-.09-.6-.09-.89,0l-1.18.2h.07Z" fill="#DE9F93"></path><path class="cls-16" d="M306.29,293.39c-1.31.09-2.62.01-3.91-.22-1.22-.32-2.41-.72-3.57-1.22-2.22-.77-4.48-1.39-6.78-1.86-2.21-.64-4.52-.87-6.81-.68-2.44.35-4.62,1.64-6.79,2.82-3.23,1.76-6.57,3.32-10,4.66-1.56.62-3.32,1.35-3.92,2.91-.25.5-.16,1.1.24,1.49.23.13.49.21.75.21,1.64.07,3.28-.07,4.88-.42l11.1-1.91c.81,2.57,1.82,5.08,3,7.5.18.42.44.8.77,1.12.35.25.75.43,1.17.54,3.43,1.21,6.99,1.98,10.61,2.3,3.64.3,7.27-.67,10.27-2.76.43-.38.89-.71,1.38-1,.45-.21.92-.38,1.4-.48,4.1-1.08,8.13-2.37,12.1-3.85.69-.26-.1-4.92-.23-5.53-.29-1.36-.89-4.29-2.25-4.63-.87-.22-2.4.27-3.31.35-1.1.11-2.21.2-3.32.28-2.26.18-4.52.31-6.78.38Z" fill="#FFB4A3"></path><path class="cls-17" d="M392,246.77c3.87,12.17,6.13,24.79,6.72,37.55.25,6.69-.28,14-4.83,18.95-3.27,3.54-8.1,5.19-12.79,6.32-19.25,4.64-39.4,2.73-59.08.63-1.4.12-2.64-.91-2.77-2.32-.01-.13-.01-.26,0-.38l-3.38-19.26,35.33-5.33c12.77-1.93,5.71-19.94,3.44-28.27-3.09-11.32-7-23.32-3.82-35.07,1.91-7,6.19-17.44,15.07-16.3,8.53,1.09,13.56,12.24,16.73,19.18,3.64,7.89,6.78,16.01,9.38,24.3Z"></path></g><g id="table"><rect class="cls-11" x="48.63" y="310.28" width="411.45" height="18.15"></rect><path class="cls-12" d="M445.47,328.24v33.85c-13.68,13.95-29.9,25.15-47.79,33-12.13,5.33-24.96,8.88-38.11,10.52-29.41,3.6-62.61,1.2-90.7,11.47-27.34,10-48.41,27.55-78.74,29.6-24.87,1.68-51.16-4.35-75.74-15.71-17.41-8.08-33.63-18.51-48.19-31.01v-71.72h379.27Z"></path><path class="cls-10" d="M445.47,328.24v33.85c-13.68,13.95-29.9,25.15-47.79,33-12.13,5.33-24.96,8.88-38.11,10.52-29.41,3.6-62.61,1.2-90.7,11.47-27.34,10-48.41,27.55-78.74,29.6-24.87,1.68-51.16-4.35-75.74-15.71-17.41-8.08-33.63-18.51-48.19-31.01v-71.72h379.27Z"></path></g><g id="approval"><polygon class="cls-8" points="214.78 146.13 214.78 193.07 179.39 193.07 172.07 205.76 165.64 193.07 128.51 193.07 128.51 146.13 214.78 146.13"></polygon><polygon class="cls-15" points="214.78 139.79 214.78 186.73 179.39 186.73 172.07 199.42 165.64 186.73 128.51 186.73 128.51 139.79 214.78 139.79"></polygon><polygon class="cls-17" points="163.81 179.35 151.95 165.91 157.94 160.61 165.11 168.74 190.1 151.51 194.64 158.09 163.81 179.35"></polygon></g><g id="bubble"><polygon class="cls-9" points="431.74 146.93 431.74 180.76 406.23 180.76 400.96 189.9 396.32 180.76 369.57 180.76 369.57 146.93 431.74 146.93"></polygon><polygon class="cls-15" points="431.74 142.36 431.74 176.19 406.23 176.19 400.96 185.33 396.32 176.19 369.57 176.19 369.57 142.36 431.74 142.36"></polygon><rect class="cls-17" x="376.76" y="152.61" width="46.73" height="1"></rect><rect class="cls-17" x="376.76" y="158.11" width="16.6" height="1"></rect><rect class="cls-17" x="400.39" y="158.11" width="16.6" height="1"></rect><rect class="cls-17" x="376.76" y="162.44" width="46.73" height="1"></rect><rect class="cls-17" x="376.76" y="167.94" width="16.6" height="1"></rect><rect class="cls-17" x="400.39" y="167.94" width="16.6" height="1"></rect></g><g id="laptop"><rect class="cls-17" x="211.45" y="302.1" width="71.19" height="7.9"></rect><polygon class="cls-17" points="238.77 310.17 131.52 310.17 113.04 237.31 220.28 237.31 238.77 310.17"></polygon><polygon class="cls-2" points="282.65 310 238.73 310 238.77 310.17 131.53 310.17 113.04 237.3 220.28 237.3 236.73 302.1 282.65 302.1 282.65 310"></polygon><polygon class="cls-3" points="282.65 310 238.73 310 238.77 310.17 131.53 310.17 113.04 237.3 220.28 237.3 236.73 302.1 282.65 302.1 282.65 310"></polygon><circle class="cls-17" cx="167.05" cy="271.61" r="11.8"></circle><polygon class="cls-4" points="282.65 310 238.73 310 238.77 310.17 228.99 310.17 210.51 237.3 220.28 237.3 236.73 302.1 282.65 302.1 282.65 310"></polygon></g><g id="cup"><path class="cls-17" d="M431.46,303.41h-3.69c-7.68-.01-13.9-6.23-13.91-13.91v-2c.01-7.68,6.23-13.9,13.91-13.91h3.69c7.68.01,13.9,6.23,13.91,13.91v2c-.01,7.68-6.23,13.9-13.91,13.91ZM427.77,277.59c-5.47.01-9.9,4.44-9.91,9.91v2c.01,5.47,4.44,9.9,9.91,9.91h3.69c5.47,0,9.9-4.44,9.91-9.91v-2c0-5.47-4.44-9.9-9.91-9.91h-3.69Z"></path><path class="cls-13" d="M398.54,268.12h34.66v30.22c0,6.69-5.42,12.11-12.11,12.11h-10.4c-6.69,0-12.11-5.42-12.11-12.11l-.04-30.22Z"></path></g></svg>