<svg transform="scale(1)" id="Wy0FerKuXQ" xmlns="http://www.w3.org/2000/svg" xmlns:xlink="http://www.w3.org/1999/xlink" viewBox="0 0 500 500" class="pbimage_pbimage__wrapper__image__0LEis false"><title>Investing 6</title><defs><style> .cls-1{fill:#68e2fd;isolation:isolate;opacity:.18;} .cls-2{fill:#473f47;} .cls-3{fill:url(#linear-gradient-2-Wy0FerKuXQ);} .cls-4{fill:url(#linear-gradient-Wy0FerKuXQ);} .cls-5{fill:#fff;} .cls-6{opacity:.38;} .cls-7{fill:#68e1fd;}
 .cls-7{fill:#68E1FD;}
 .cls-5{fill:#FFFFFF;}
 .cls-2{fill:#473F47;}
 .cls-1{fill:#68E2FD;}</style><linearGradient id="linear-gradient-Wy0FerKuXQ" x1="228.12" y1="551.79" x2="149.93" y2="-664.06" gradientUnits="userSpaceOnUse"><stop offset="0" stop-color="#000" style="stop-color: rgb(0, 0, 0);"></stop><stop offset=".2" stop-color="#000" stop-opacity=".69" style="stop-color: rgb(0, 0, 0);"></stop><stop offset=".32" stop-color="#000" stop-opacity=".32" style="stop-color: rgb(0, 0, 0);"></stop><stop offset="1" stop-color="#000" stop-opacity="0" style="stop-color: rgb(0, 0, 0);"></stop></linearGradient><linearGradient id="linear-gradient-2-Wy0FerKuXQ" x1="337.8" y1="356.23" x2="402.95" y2="461.79" xlink:href="#linear-gradient-Wy0FerKuXQ"></linearGradient></defs><path class="cls-1" d="M479.84,291.26c-.21,10.13-.49,20.34-1.12,30.5-.76,12.21-2.01,24.36-4.24,36.29-1.99,10.5-4.73,20.82-8.6,30.84-10.58,27.54-31.09,52.78-58.25,63.32-3.25,1.26-6.6,2.31-10.03,3.13-35.3,8.42-71.03-8.41-104.65-22.1-22.19-9.03-46.76-17-71.04-15.13-19.23,1.46-37.36,9.59-56.69,12.38-21.48,3.11-44.33,4.3-65.68.72-4.84-.8-9.61-1.86-14.26-3.19-13.14-3.75-25.39-9.73-36.02-18.67-17.8-14.97-24.57-32.37-27.24-51.3-2-14.22-1.7-29.3-2-44.85-.7-35.43,14.75-82.41,36.55-110.56,10.89-14.04,25.06-25.27,36.14-39.18,21.63-27.16,30.82-63.68,56.63-86.91,9.3-8.38,20.35-14.6,31.58-20.13,12.83-6.32,26.29-11.92,40.5-13.52,13.7-1.54,27.52.71,41.09,3.14,19.53,3.5,39.25,7.49,57.15,16.05,19.29,9.21,36.04,23.68,47.99,41.41,21.87,32.5,59.95,44.65,85.45,73.93,12.81,14.72,19.69,32.71,23.27,51.92,3.75,20.09,3.89,41.51,3.47,61.91Z"></path><path class="cls-2" d="M52.99,156.25l38.42,194.37c1.15,5.8,6.89,9.47,12.63,8.08l241.05-58.31c5.42-1.31,8.84-6.67,7.74-12.14l-33.6-167.92c-1.07-5.36-6.11-8.97-11.52-8.26l-245.87,31.86c-5.96.77-10.02,6.42-8.86,12.32Z"></path><path class="cls-7" d="M56.9,154.63l38.42,194.37c1.15,5.8,6.89,9.47,12.63,8.08l241.05-58.31c5.42-1.31,8.84-6.67,7.74-12.14l-33.6-167.92c-1.07-5.36-6.11-8.97-11.52-8.26l-245.87,31.86c-5.96.77-10.02,6.42-8.86,12.32Z"></path><path class="cls-4" d="M56.9,154.63l38.42,194.37c1.15,5.8,6.89,9.47,12.63,8.08l241.05-58.31c5.42-1.31,8.84-6.67,7.74-12.14l-33.6-167.92c-1.07-5.36-6.11-8.97-11.52-8.26l-245.87,31.86c-5.96.77-10.02,6.42-8.86,12.32Z"></path><polygon class="cls-7" points="191.84 301.95 165.69 308.36 159.36 271.44 185.51 265.02 191.84 301.95"></polygon><polygon class="cls-7" points="229.83 292.62 203.69 299.04 193.69 240.73 219.84 234.31 229.83 292.62"></polygon><polygon class="cls-7" points="267.83 283.3 241.68 289.72 227.87 209.16 254.02 202.75 267.83 283.3"></polygon><polygon class="cls-5" points="305.82 273.98 279.67 280.4 262.24 178.7 288.39 172.28 305.82 273.98"></polygon><polygon class="cls-5" points="166.72 252.07 164.96 250.85 186.43 212.76 205.6 226.75 230.25 183.38 241.3 190.12 272.77 149.49 274.33 151 241.73 193.09 230.93 186.5 206.2 230.02 187.03 216.03 166.72 252.07"></polygon><path class="cls-5" d="M144.02,215.78l-23.73,5.82c-1.78.44-3.49-.82-3.83-2.8l-2.23-13c-.34-1.98.83-3.94,2.6-4.38l23.73-5.82c1.78-.44,3.49.82,3.83,2.8l2.23,13c.34,1.98-.83,3.94-2.6,4.38Z"></path><path class="cls-5" d="M121.45,186.79c.42,2.48-1.03,4.93-3.25,5.47-2.22.55-4.37-1.02-4.79-3.5s1.03-4.93,3.25-5.47,4.37,1.02,4.79,3.5Z"></path><path class="cls-7" d="M136.87,183c.42,2.48-1.03,4.93-3.25,5.47-2.22.55-4.37-1.02-4.79-3.5s1.03-4.93,3.25-5.47c2.22-.55,4.37,1.02,4.79,3.5Z"></path><path class="cls-7" d="M99.38,359.63l256.56-62.06c3.06-.74,6.28-.39,9.1.99l109,53.25-243.69,78.84-130.97-71.02Z"></path><polygon class="cls-2" points="292.35 376.13 355.34 355.5 382.71 372.87 320.37 392.42 292.35 376.13"></polygon><path class="cls-2" d="M99.38,359.63s-4.78,9.12.87,14.33,125.97,72.54,129.23,73.52v-16.83l-130.1-71.02Z"></path><path class="cls-2" d="M474.04,351.81s-1.85,16.4-12.71,19.87-219.8,74.71-219.8,74.71c0,0-6.3,3.48-12.05,1.09s0-16.83,0-16.83l244.56-78.84Z"></path><polygon class="cls-2" points="205.26 393.18 410.51 332.58 361.42 307.61 147.27 363.21 205.26 393.18"></polygon><path class="cls-7" d="M56.05,268.29l60.38-17.38s18.68,53.86,26.93,60.81l-72.54,27.37s-24.33-40.83-14.77-70.81Z"></path><g class="cls-6"><polygon class="cls-2" points="112.79 280.73 75.03 292.53 74.5 290.31 112.35 278.91 112.79 280.73" fill="#473F47"></polygon><polygon class="cls-2" points="115.1 289.79 77.89 303.57 77.36 301.36 114.67 287.98 115.1 289.79" fill="#473F47"></polygon><polygon class="cls-2" points="117.41 298.84 80.74 314.6 80.21 312.38 116.98 297.03 117.41 298.84" fill="#473F47"></polygon></g><path class="cls-5" d="M83.85,244.62l.87,33.88c1.06-1.02,3.34-.37,4.11.89,1.01-1.2,2.41-2.07,3.94-2.44.29-1,1.62-1.52,2.52-.98,2.15-11.63.72-23.62-1.48-35.24-1.17,1.86-3.93,1.67-6.04,1.05-.48-.14-1.04-.29-1.46-.01-.26.17-.41.47-.58.73-.64.97-.71,2.13-1.88,2.13Z"></path><path class="cls-7" d="M392.86,122.89c0,36.7-29.75,66.46-66.46,66.46s-66.46-29.76-66.46-66.46,29.24-65.94,65.49-66.46v66.46h67.43Z"></path><path class="cls-2" d="M405.95,119.41h-76.24V44.27c.36-.01.73-.01,1.1-.01,41.5,0,75.14,33.65,75.14,75.15Z"></path><polygon class="cls-7" points="65.5 396.58 183.79 435.05 179.99 446.45 61.7 407.98 65.5 396.58"></polygon><polygon class="cls-2" points="183.79 435.05 197.88 447.65 179.99 446.45 183.79 435.05"></polygon><path class="cls-2" d="M65.5,396.58l-3.8,11.4-11.74-4.23c-3.15-1.13-4.77-4.63-3.59-7.76h0c1.15-3.07,4.56-4.65,7.66-3.54l11.48,4.13Z"></path><path class="cls-7" d="M390.68,378.57s-1.29,9.56-5.59,10.88c-3.43,1.06-31.81,10.52-43.11,14.3-3.84,1.28-8.02.89-11.56-1.07-1.37-.76-2.99-1.73-4.89-2.98l65.15-21.13Z"></path><path class="cls-3" d="M390.68,378.57s-1.29,9.56-5.59,10.88c-3.43,1.06-31.81,10.52-43.11,14.3-3.84,1.28-8.02.89-11.56-1.07-1.37-.76-2.99-1.73-4.89-2.98l65.15-21.13Z"></path></svg>