<svg transform="scale(1)" id="a4diQVy58X" xmlns="http://www.w3.org/2000/svg" xmlns:xlink="http://www.w3.org/1999/xlink" viewBox="0 0 500 500" class="pbimage_pbimage__wrapper__image__0LEis false"><title>Deadline 1</title><defs><style> .cls-1{fill:url(#linear-gradient-a4diQVy58X);} .cls-1, .cls-2, .cls-3, .cls-4, .cls-5, .cls-6, .cls-7, .cls-8{stroke-width:0px;} .cls-2{isolation:isolate;opacity:.18;} .cls-2, .cls-8{fill:#68e0fc;} .cls-3{fill:url(#linear-gradient-4-a4diQVy58X);} .cls-4{fill:url(#linear-gradient-2-a4diQVy58X);} .cls-5{fill:url(#linear-gradient-3-a4diQVy58X);} .cls-6{fill:#473f47;} .cls-7{fill:#fff;}
 .cls-2, .cls-8{fill:#68E0FC;}
 .cls-7{fill:#FFFFFF;}
 .cls-6{fill:#473F47;}</style><linearGradient id="linear-gradient-a4diQVy58X" x1="-1824.28" y1="1692.31" x2="-1891.26" y2="1748.87" gradientTransform="translate(2040 1926) scale(1 -1)" gradientUnits="userSpaceOnUse"><stop offset="0" stop-color="#000" style="stop-color: rgb(0, 0, 0);"></stop><stop offset=".08" stop-color="#000" stop-opacity=".69" style="stop-color: rgb(0, 0, 0);"></stop><stop offset=".21" stop-color="#000" stop-opacity=".32" style="stop-color: rgb(0, 0, 0);"></stop><stop offset="1" stop-color="#000" stop-opacity="0" style="stop-color: rgb(0, 0, 0);"></stop></linearGradient><linearGradient id="linear-gradient-2-a4diQVy58X" x1="-1943.52" y1="1853.86" x2="-1848.07" y2="1701.49" xlink:href="#linear-gradient-a4diQVy58X"></linearGradient><linearGradient id="linear-gradient-3-a4diQVy58X" x1="-1892.72" y1="1678.2" x2="-1682.38" y2="1678.2" xlink:href="#linear-gradient-a4diQVy58X"></linearGradient><linearGradient id="linear-gradient-4-a4diQVy58X" x1="-1767.86" y1="1676.33" x2="-1662.19" y2="1677.82" xlink:href="#linear-gradient-a4diQVy58X"></linearGradient></defs><path class="cls-2" id="background" d="M19.59,228.38c.8-2.91,1.74-5.77,2.83-8.57,10.5-26.9,28.24-54.14,45.48-77.16,85.13-113.66,289.35-124.5,366.15,5.4,20.26,34.26,39.35,70.03,47.11,109.07,4.97,25.02,5.15,50.85,2.21,76.19-2.44,21.04-7.15,42.22-17.79,60.54-10.63,18.32-27.85,33.6-48.53,38.18-33.18,7.34-65.89-13.27-99.76-16.14-30.61-2.6-60.28,9.37-89.46,18.98-58.2,19.16-126.3,14.84-170.81-32.32-27.44-29.07-40.97-70.31-41.7-109.8-.39-21.19-1.36-44,4.26-64.37h.01Z"></path><g id="clock"><path class="cls-8" d="M218.07,127.54c-9.26-11.72-26.11-16.79-40.29-12.12,8.79.99,16.32,8.79,16.99,17.61.22,2.94-.45,6.27-2.9,7.91-3.93,2.63-8.96-.7-12.74-3.54-15.49-11.63-35.64-16.85-54.83-14.22,7.12,4.41,15.92,4.97,23.71,8.05,7.79,3.08,15.21,10.89,12.79,18.91-2.71,9.01-15.35,10.5-24.01,6.83-15.47-6.55-25.19-24.5-22.22-41.03-2.38,14.05-4.76,28.11-7.14,42.16-.64,3.77-1.27,7.68-.26,11.36,2.06,7.55,9.98,11.57,16.51,15.87,7.26,4.77,14.02,11.69,14.86,20.34s-7.18,18.09-15.56,15.79c-7.66-2.1-10.36-11.38-11.78-19.19,5.78,13.48,4.69,28.96,9.23,42.91,5.03,15.47,16.52,27.84,27.68,39.67,4.57,4.84,9.63,9.96,16.19,11.05-3.09-39.23,14.13-79.52,44.61-104.41,7.42-6.05,15.6-11.29,21.93-18.47,18.39-20.84-.02-29.34-12.78-45.49h0Z"></path><path class="cls-1" d="M218.07,127.54c-9.26-11.72-26.11-16.79-40.29-12.12,8.79.99,16.32,8.79,16.99,17.61.22,2.94-.45,6.27-2.9,7.91-3.93,2.63-8.96-.7-12.74-3.54-15.49-11.63-35.64-16.85-54.83-14.22,7.12,4.41,15.92,4.97,23.71,8.05,7.79,3.08,15.21,10.89,12.79,18.91-2.71,9.01-15.35,10.5-24.01,6.83-15.47-6.55-25.19-24.5-22.22-41.03-2.38,14.05-4.76,28.11-7.14,42.16-.64,3.77-1.27,7.68-.26,11.36,2.06,7.55,9.98,11.57,16.51,15.87,7.26,4.77,14.02,11.69,14.86,20.34s-7.18,18.09-15.56,15.79c-7.66-2.1-10.36-11.38-11.78-19.19,5.78,13.48,4.69,28.96,9.23,42.91,5.03,15.47,16.52,27.84,27.68,39.67,4.57,4.84,9.63,9.96,16.19,11.05-3.09-39.23,14.13-79.52,44.61-104.41,7.42-6.05,15.6-11.29,21.93-18.47,18.39-20.84-.02-29.34-12.78-45.49h0Z"></path><path class="cls-4" d="M131.32,167.37c3.85,8.16,9.04,16.17,16.94,20.53,2.81,1.55,5.9,2.6,8.52,4.46,2.41,1.71,4.33,4.04,5.85,6.57,4.69,7.84,5.42,18.27.67,26.08-4.75,7.81-15.28,11.99-23.69,8.41,1.82,2.15,3.64,4.3,5.45,6.45.89,1.05,1.84,2.33,1.54,3.67-.17.78-.75,1.41-1.37,1.91-3.24,2.6-8.14,2.35-11.73.24-3.59-2.11-6.03-5.74-7.76-9.52,3.71,10.65,8.2,22.24,18.14,27.57,4.41,2.36,9.49,3.21,14.5,3.38,1.85.06,3.75.03,5.5-.61,4.35-1.58,6.55-6.32,8.3-10.62,6.51-15.98,13.01-31.96,19.52-47.95,2.91-7.15,5.97-14.53,11.58-19.83,5.19-4.91,12.31-7.77,16.44-13.6,3.03-4.28,4.07-9.67,4.29-14.9.1-2.31.05-4.68-.71-6.86-2.31-6.65-10.07-9.47-14.78-14.7,2.88,9.29-2.61,19.38-10.14,25.53-6.83,5.58-16.02,10.55-24.17,14.01-8.31,3.53-19.48,1.7-27.67-1.26-5.57-2.01-10.79-5.03-15.23-8.97h0Z"></path><circle class="cls-8" cx="252.45" cy="247.8" r="105.17"></circle><circle class="cls-5" cx="252.45" cy="247.8" r="105.17"></circle><circle class="cls-8" cx="264.73" cy="249.77" r="105.17"></circle><path class="cls-3" d="M347.68,257.8c-4.25,43.96-41.93,76.63-85.44,75.28-1.83-.06-3.68-.17-5.53-.35-45.81-4.43-79.36-45.16-74.93-90.97,4.08-42.2,38.95-73.99,80.23-75.29,3.54-.11,7.12,0,10.74.35,45.82,4.44,79.37,45.17,74.93,90.98Z"></path><path class="cls-7" d="M342.48,257.8c-4.08,42.19-38.96,73.98-80.24,75.28-1.83-.06-3.68-.17-5.53-.35-45.81-4.43-79.36-45.16-74.93-90.97,4.08-42.2,38.95-73.99,80.23-75.29,1.83.06,3.68.17,5.53.35,45.82,4.44,79.37,45.17,74.94,90.98h0Z" fill="#FFFFFF"></path><path class="cls-6" d="M262.13,266.92c-.95,0-1.89-.34-2.63-.99-1.03-.9-1.53-2.27-1.32-3.62l9.41-61.39c.34-2.18,2.37-3.68,4.56-3.35,2.18.33,3.68,2.38,3.35,4.56l-8.46,55.16,38.34-11.36c2.12-.63,4.34.58,4.97,2.7.63,2.12-.58,4.34-2.7,4.97l-44.39,13.15c-.37.11-.76.17-1.14.17Z" fill="#473F47"></path></g><g id="paper"><path class="cls-2" d="M372.41,146.7c1.16-.33,2.33-.71,3.27-1.47,1.36-1.09,2.04-2.79,2.61-4.43,2.81-8.05,4.15-17.65-.85-24.55,4.29,2.88,8.92,5.22,13.26,8.02,9.61,6.21,17.72,14.72,23.45,24.63-4.43,16.8-20.2,29.97-37.52,31.33-8.61-10.79-18.16-21.29-25.98-32.65,3.34.78,6.08,1.92,9.56,1.54,4.08-.44,8.26-1.29,12.2-2.42Z"></path><path class="cls-2" d="M68.39,320.27c1.24-11.48,3.76-22.82,7.5-33.75,4.53,13.42,17.18,23.73,31.24,25.45,7.95.97,16.64-.91,22.18-6.69-1.86,13.95-2.49,28.07-1.86,42.14-8.86.89-17.81.79-26.64-.3-5.2-.64-10.46-1.65-15.08-4.12-3.73-2-6.9-4.87-10.03-7.71-3.29-2.98-6.77-6.31-7.46-10.69"></path><path class="cls-2" d="M383.38,332.47c6.44-3.08,11.5-9.27,12.44-16.34,3.84,11.84,7.71,23.88,7.99,36.32-7.74,2.41-15.61,4.68-23.7,5.26-8.09.58-16.51-.64-23.47-4.8,2.17-2.68,3.85-5.77,4.95-9.04.59-1.77.63-8.37,1.87-9.37,1.29-1.04,7.76.62,9.72.51,3.52-.2,7.02-1.01,10.21-2.53h0Z"></path><path class="cls-7" d="M372.41,144.14c1.16-.33,2.33-.71,3.27-1.47,1.36-1.09,2.04-2.79,2.61-4.43,2.81-8.05,4.15-17.65-.85-24.55,4.29,2.88,8.92,5.22,13.26,8.02,9.61,6.21,17.72,14.72,23.45,24.63-4.43,16.8-20.2,29.97-37.52,31.33-8.61-10.79-18.16-21.29-25.98-32.65,3.34.78,6.08,1.92,9.56,1.54,4.08-.44,8.26-1.29,12.2-2.42Z"></path><path class="cls-7" d="M68.39,317.71c1.24-11.48,3.76-22.82,7.5-33.75,4.53,13.42,17.18,23.73,31.24,25.45,7.95.97,16.64-.91,22.18-6.69-1.86,13.95-2.49,28.07-1.86,42.14-8.86.89-17.81.79-26.64-.3-5.2-.64-10.46-1.65-15.08-4.12-3.73-2-6.9-4.87-10.03-7.71-3.29-2.98-6.77-6.31-7.46-10.69"></path><path class="cls-7" d="M383.38,329.92c6.44-3.08,11.5-9.27,12.44-16.34,3.84,11.84,7.71,23.88,7.99,36.32-7.74,2.41-15.61,4.68-23.7,5.26s-16.51-.64-23.47-4.8c2.17-2.68,3.85-5.77,4.95-9.04.59-1.77.63-8.37,1.87-9.37,1.29-1.04,7.76.62,9.72.51,3.52-.2,7.02-1.01,10.21-2.53h0Z"></path><path class="cls-2" d="M171.93,378.76l22.21-7.93,11.91,23.44s-28.53,3.72-33.43,18.23l-6.81-21.36c-1.63-5.1,1.08-10.58,6.13-12.38h-.01Z"></path><path class="cls-7" d="M171.1,377.18l22.21-7.93,11.91,23.44s-28.53,3.72-33.43,18.23l-6.81-21.36c-1.63-5.1,1.08-10.58,6.13-12.38h-.01Z"></path></g></svg>